<svg width="24" height="24" viewBox="0 0 24 24" fill="none" xmlns="http://www.w3.org/2000/svg">
<path d="M12.2083 20.3334C12.2083 20.9087 11.742 21.3751 11.1667 21.3751C10.5914 21.3751 10.125 20.9087 10.125 20.3334C10.125 19.7581 10.5914 19.2917 11.1667 19.2917C11.742 19.2917 12.2083 19.7581 12.2083 20.3334Z" stroke="#2E3742" stroke-width="1.25" stroke-linecap="round" stroke-linejoin="round"/>
<path d="M18.0416 20.3334C18.0416 20.9087 17.5752 21.3751 16.9999 21.3751C16.4247 21.3751 15.9583 20.9087 15.9583 20.3334C15.9583 19.7581 16.4247 19.2917 16.9999 19.2917C17.5752 19.2917 18.0416 19.7581 18.0416 20.3334Z" stroke="#2E3742" stroke-width="1.25" stroke-linecap="round" stroke-linejoin="round"/>
<path d="M2.83328 4.5L5.09242 5.25305C5.75885 5.47519 6.25988 6.03069 6.41231 6.71644L8.39995 15.6583C8.47615 16.042 8.68487 16.3866 8.98957 16.6319C9.29427 16.8772 9.67553 17.0075 10.0666 17H18.1666C18.5577 17.0075 18.939 16.8772 19.2437 16.6319C19.5484 16.3866 19.7571 16.042 19.8333 15.6583L20.642 11.9232C20.9118 10.6771 19.9623 9.5 18.6873 9.5H6.99995" stroke="#2E3742" stroke-width="1.25" stroke-linecap="round" stroke-linejoin="round"/>
</svg>
