<svg width="8" height="11" viewBox="0 0 8 11" fill="none" xmlns="http://www.w3.org/2000/svg">
<path d="M6.32209 5.07859C6.30828 4.99566 6.27221 4.91804 6.21772 4.85402C6.16323 4.79001 6.09237 4.74199 6.01272 4.71511C5.28301 4.46801 4.50853 4.38152 3.74229 4.46154C2.97642 4.41025 2.20755 4.49612 1.47187 4.71511C1.38876 4.74448 1.31531 4.79612 1.25956 4.86439C1.20381 4.93267 1.16789 5.01495 1.15573 5.10226C1.01001 5.82516 0.956896 6.56366 0.997668 7.29998C0.965989 8.01525 1.00534 8.73189 1.11516 9.43939C1.12414 9.53643 1.1601 9.62901 1.21896 9.70669C1.27781 9.78436 1.35722 9.84403 1.44821 9.87894C1.90465 10.0091 2.37673 10.0762 2.85136 10.0784V8.98885C2.84582 8.66808 2.85768 8.34726 2.88687 8.02777C2.88791 7.96002 2.91364 7.89497 2.95924 7.84485C3.00484 7.79474 3.06718 7.76299 3.13454 7.75559C3.33351 7.71266 3.53748 7.69759 3.7406 7.71079C3.94456 7.69852 4.14924 7.71358 4.3492 7.75559C4.41699 7.76191 4.47997 7.79334 4.52579 7.84369C4.57161 7.89405 4.59695 7.95969 4.59687 8.02777C4.59687 8.02777 4.63153 8.33799 4.63153 8.98209C4.63153 9.6262 4.60617 10.081 4.60617 10.081C5.06525 10.0716 5.52214 10.0149 5.96961 9.91191C6.06352 9.88522 6.14843 9.83354 6.21527 9.76238C6.28211 9.69122 6.32837 9.60326 6.34913 9.50787C6.49662 8.78263 6.54244 8.04039 6.48523 7.30252C6.50924 6.55753 6.45455 5.8121 6.32209 5.07859Z" fill="#FF7265"/>
<path d="M7.34837 4.86112C7.34837 4.86112 6.9477 4.34972 5.97901 3.12237C5.42763 2.4027 4.83255 1.71757 4.19716 1.07087C4.08047 0.972745 3.9329 0.918945 3.78044 0.918945C3.62797 0.918945 3.48041 0.972745 3.36372 1.07087C2.69521 1.71306 2.06948 2.39837 1.49057 3.12237C0.674876 4.17728 0.093323 4.95748 0.093323 4.95748C0.0448764 5.02423 0.0140847 5.10214 0.00381111 5.18398C-0.00646249 5.26582 0.00411629 5.34893 0.0345598 5.42558C0.0650034 5.50224 0.114325 5.56997 0.177946 5.62246C0.241568 5.67495 0.317432 5.71051 0.398476 5.72583C0.499064 5.74359 2.25809 5.9211 3.70605 5.91941C5.15402 5.91772 6.91812 5.73851 7.04322 5.72583C7.13522 5.70984 7.2213 5.66963 7.2926 5.60934C7.36391 5.54905 7.41787 5.47086 7.44894 5.3828C7.48001 5.29475 7.48707 5.20001 7.4694 5.10832C7.45172 5.01663 7.40995 4.93131 7.34837 4.86112Z" fill="#FF7265"/>
</svg>
