<svg width="10" height="11" viewBox="0 0 10 11" fill="none" xmlns="http://www.w3.org/2000/svg">
<path d="M2.39847 1.51953C2.44047 1.93253 2.48945 2.53055 2.49845 3.25555C2.55082 3.87022 2.51719 4.48918 2.39847 5.09454C2.14064 5.78061 1.76466 6.41621 1.28751 6.97253C0.845664 7.63808 0.450999 8.33381 0.10648 9.05457C0.0488287 9.1535 0.0135752 9.26383 0.00320844 9.37787C-0.0071583 9.4919 0.00767752 9.60683 0.0465434 9.71454C0.0976062 9.83327 0.176577 9.93791 0.27689 10.0194C0.377203 10.1009 0.495797 10.1569 0.622471 10.1826C1.08747 10.2206 1.74446 10.2706 2.53946 10.3156C2.62946 10.3206 3.33049 10.3595 4.26749 10.3765C4.96094 10.3818 5.65318 10.3168 6.33353 10.1826C6.46995 10.174 6.60312 10.1375 6.72489 10.0754C6.84666 10.0133 6.95446 9.9269 7.04154 9.82153C7.09976 9.69655 7.1309 9.56071 7.13297 9.42285C7.13504 9.28499 7.10795 9.14822 7.0535 9.02155C6.5845 7.56855 5.19346 6.74552 4.73746 5.12152C4.60315 4.55984 4.54438 3.98281 4.56253 3.40558C4.55145 2.73813 4.60633 2.07119 4.72648 1.41455L2.39847 1.51953Z" fill="#1778F2"/>
<path d="M1.95065 0.826465C1.90145 0.914975 1.87671 1.01502 1.87899 1.11626C1.88128 1.2175 1.91045 1.31625 1.96358 1.40245C2.06358 1.56345 2.26363 1.66951 3.51363 1.66851C4.76363 1.66751 4.95264 1.56245 5.04964 1.40245C5.09896 1.31683 5.12484 1.21977 5.12484 1.12096C5.12484 1.02215 5.09896 0.925085 5.04964 0.839465C4.90064 0.604465 4.59363 0.629453 3.46163 0.626453C2.38963 0.621453 2.08965 0.597465 1.95065 0.826465Z" fill="#1778F2"/>
<path d="M0.869962 9.31068C1.06996 9.79268 2.00695 9.79868 3.80795 9.78968C6.07895 9.77768 6.30797 9.47768 6.37997 9.32368C6.51497 9.02368 6.32395 8.6727 5.97995 8.0417C5.74624 7.47165 5.32222 7.00024 4.78 6.70771C4.42017 6.56672 4.0336 6.50728 3.64804 6.5337C3.29448 6.51314 2.94043 6.56555 2.608 6.68769C2.03853 6.98122 1.58781 7.46231 1.332 8.04969C0.949998 8.70769 0.756962 9.04068 0.869962 9.31068Z" fill="#1778F2"/>
<path d="M4.481 7.87375L6.172 10.1108C6.19662 10.1433 6.22844 10.1697 6.26496 10.1878C6.30148 10.206 6.34171 10.2154 6.3825 10.2154C6.42329 10.2154 6.46352 10.206 6.50005 10.1878C6.53657 10.1697 6.56838 10.1433 6.593 10.1108L8.284 7.87375C8.55203 7.52009 8.71603 7.09864 8.75755 6.65683C8.79906 6.21503 8.71644 5.7704 8.51898 5.373C8.32153 4.9756 8.01707 4.64119 7.63989 4.40743C7.2627 4.17366 6.82775 4.0498 6.384 4.0498C5.94025 4.0498 5.5053 4.17366 5.12812 4.40743C4.75093 4.64119 4.44648 4.9756 4.24902 5.373C4.05156 5.7704 3.96894 6.21503 4.01046 6.65683C4.05197 7.09864 4.21597 7.52009 4.484 7.87375H4.481Z" fill="#4285F4" stroke="#EEF4FF" stroke-width="0.7"/>
<path d="M6.12941 7.46267C6.71648 7.46267 7.19241 6.98675 7.19241 6.39967C7.19241 5.81259 6.71648 5.33667 6.12941 5.33667C5.54233 5.33667 5.06641 5.81259 5.06641 6.39967C5.06641 6.98675 5.54233 7.46267 6.12941 7.46267Z" fill="#EEF4FF"/>
</svg>
