<svg width="16" height="12" viewBox="0 0 16 12" fill="none" xmlns="http://www.w3.org/2000/svg">
<g clip-path="url(#clip0_1_1794)">
<path d="M7.9826 11.9896C6.98615 11.9915 6.01333 11.6862 5.19658 11.1154C5.10563 11.052 5.04358 10.955 5.02409 10.8459C5.0046 10.7367 5.02927 10.6243 5.09267 10.5333C5.15606 10.4424 5.253 10.3803 5.36214 10.3608C5.47129 10.3414 5.58371 10.366 5.67466 10.4294C6.28042 10.8512 6.99015 11.0989 7.72677 11.1457C8.46339 11.1925 9.19876 11.0365 9.85301 10.6948C10.5073 10.3531 11.0554 9.8387 11.4379 9.2074C11.8204 8.57611 12.0226 7.85209 12.0226 7.11396C12.0226 6.37583 11.8204 5.65181 11.4379 5.02051C11.0554 4.38922 10.5073 3.87479 9.85301 3.53308C9.19876 3.19137 8.46339 3.03545 7.72677 3.08224C6.99015 3.12903 6.28042 3.37675 5.67466 3.7985C5.58371 3.8619 5.47129 3.88657 5.36214 3.86708C5.253 3.84759 5.15606 3.78554 5.09267 3.69458C5.02927 3.60362 5.0046 3.4912 5.02409 3.38205C5.04358 3.2729 5.10563 3.17596 5.19658 3.11256C5.82462 2.6753 6.54675 2.39201 7.30458 2.28563C8.0624 2.17924 8.83462 2.25274 9.55877 2.50017C10.2829 2.74761 10.9387 3.16204 11.4729 3.70992C12.0072 4.25781 12.405 4.92377 12.6342 5.65393C12.8633 6.38409 12.9174 7.15794 12.792 7.91287C12.6666 8.6678 12.3653 9.38262 11.9124 9.99948C11.4595 10.6163 10.8678 11.1179 10.1851 11.4637C9.50235 11.8094 8.74785 11.9896 7.9826 11.9896Z" fill="#1778F2"/>
<path d="M5.19708 7.80913H2.96827C2.85744 7.80913 2.75114 7.7651 2.67277 7.68673C2.5944 7.60836 2.55037 7.50206 2.55037 7.39122C2.55037 7.28038 2.5944 7.17408 2.67277 7.09571C2.75114 7.01733 2.85744 6.9733 2.96827 6.9733H5.19708C5.30792 6.9733 5.41421 7.01733 5.49259 7.09571C5.57096 7.17408 5.61499 7.28038 5.61499 7.39122C5.61499 7.50206 5.57096 7.60836 5.49259 7.68673C5.41421 7.7651 5.30792 7.80913 5.19708 7.80913ZM5.57598 6.13747H2.41107C2.30023 6.13747 2.19394 6.09344 2.11556 6.01507C2.03719 5.93669 1.99316 5.8304 1.99316 5.71956C1.99316 5.60872 2.03719 5.50242 2.11556 5.42405C2.19394 5.34567 2.30023 5.30164 2.41107 5.30164H5.57598C5.68682 5.30164 5.79311 5.34567 5.87148 5.42405C5.94986 5.50242 5.99388 5.60872 5.99388 5.71956C5.99388 5.8304 5.94986 5.93669 5.87148 6.01507C5.79311 6.09344 5.68682 6.13747 5.57598 6.13747ZM5.75429 9.48079H2.41107C2.30023 9.48079 2.19394 9.43676 2.11556 9.35839C2.03719 9.28002 1.99316 9.17372 1.99316 9.06288C1.99316 8.95204 2.03719 8.84574 2.11556 8.76737C2.19394 8.68899 2.30023 8.64496 2.41107 8.64496H5.75429C5.86512 8.64496 5.97142 8.68899 6.04979 8.76737C6.12816 8.84574 6.17219 8.95204 6.17219 9.06288C6.17219 9.17372 6.12816 9.28002 6.04979 9.35839C5.97142 9.43676 5.86512 9.48079 5.75429 9.48079ZM13.3428 1.34037L11.464 0.14067C11.2457 0.00198529 10.9814 -0.0445127 10.729 0.0113693C10.4765 0.0672514 10.2565 0.220954 10.1172 0.438783L9.81741 0.90852C9.67856 1.12656 9.63191 1.39079 9.68769 1.6432C9.74348 1.89561 9.89715 2.11556 10.115 2.25476L11.995 3.4539C12.2131 3.59214 12.477 3.63844 12.7292 3.58268C12.9813 3.52693 13.2011 3.37366 13.3406 3.15635L13.6404 2.68661C13.7789 2.46849 13.8254 2.20435 13.7697 1.95203C13.7139 1.69971 13.5604 1.47977 13.3428 1.34037Z" fill="#1778F2"/>
<path d="M10.6795 3.85719C10.6047 3.85704 10.5313 3.8368 10.4669 3.79858C10.4026 3.76035 10.3497 3.70556 10.3138 3.63991C10.2779 3.57426 10.2602 3.50017 10.2627 3.42538C10.2652 3.35058 10.2877 3.27783 10.3279 3.21472L10.9269 2.27524C10.9564 2.22896 10.9948 2.18895 11.0398 2.15749C11.0848 2.12602 11.1355 2.10373 11.1891 2.09188C11.2427 2.08004 11.2981 2.07886 11.3522 2.08843C11.4063 2.09799 11.4579 2.11812 11.5042 2.14764C11.5505 2.17717 11.5905 2.21552 11.6219 2.26051C11.6534 2.3055 11.6757 2.35625 11.6875 2.40985C11.6994 2.46346 11.7006 2.51887 11.691 2.57293C11.6814 2.62699 11.6613 2.67864 11.6318 2.72492L11.0322 3.66384C10.9946 3.72324 10.9425 3.77214 10.8808 3.80595C10.8191 3.83976 10.7499 3.85739 10.6795 3.85719ZM7.98322 3.90623C7.34954 3.90623 6.7301 4.09414 6.20322 4.4462C5.67633 4.79826 5.26568 5.29866 5.02318 5.88412C4.78069 6.46958 4.71724 7.1138 4.84086 7.73532C4.96448 8.35683 5.26963 8.92773 5.7177 9.37582C6.16578 9.82391 6.73666 10.1291 7.35816 10.2527C7.97966 10.3763 8.62387 10.3129 9.2093 10.0704C9.79474 9.82786 10.2951 9.4172 10.6472 8.8903C10.9992 8.3634 11.1871 7.74394 11.1871 7.11024C11.19 6.6887 11.109 6.2708 10.949 5.8808C10.789 5.4908 10.5531 5.13647 10.255 4.83839C9.95693 4.54031 9.60261 4.30441 9.21263 4.14439C8.82264 3.98437 8.40475 3.90341 7.98322 3.90623ZM9.37177 6.4583L8.80286 6.95199C8.81334 7.0041 8.81875 7.0571 8.81902 7.11024C8.82186 7.29105 8.76691 7.46804 8.66217 7.61545C8.55743 7.76286 8.40837 7.87298 8.2367 7.92978C8.06503 7.98659 7.87971 7.9871 7.70772 7.93126C7.53573 7.87542 7.38606 7.76614 7.2805 7.61932C7.17493 7.4725 7.11899 7.29582 7.12081 7.115C7.12264 6.93418 7.18213 6.75866 7.29064 6.614C7.39914 6.46935 7.55098 6.3631 7.72406 6.31074C7.89714 6.25838 8.08241 6.26264 8.2529 6.32289L8.82348 5.82697C8.9072 5.75426 9.01637 5.71778 9.12698 5.72557C9.23759 5.73335 9.34057 5.78476 9.41328 5.86848C9.48599 5.9522 9.52246 6.06137 9.51468 6.17198C9.50689 6.2826 9.45549 6.38559 9.37177 6.4583Z" fill="#1778F2"/>
<path d="M7.9826 11.9916C6.98615 11.9934 6.01333 11.6882 5.19658 11.1173C5.10563 11.0539 5.04358 10.957 5.02409 10.8478C5.0046 10.7387 5.02927 10.6263 5.09267 10.5353C5.15606 10.4443 5.253 10.3823 5.36214 10.3628C5.47129 10.3433 5.58371 10.368 5.67466 10.4314C6.28042 10.8531 6.99015 11.1008 7.72677 11.1476C8.46339 11.1944 9.19876 11.0385 9.85301 10.6968C10.5073 10.3551 11.0554 9.84065 11.4379 9.20936C11.8204 8.57806 12.0226 7.85404 12.0226 7.11591C12.0226 6.37778 11.8204 5.65376 11.4379 5.02247C11.0554 4.39117 10.5073 3.87674 9.85301 3.53503C9.19876 3.19332 8.46339 3.0374 7.72677 3.08419C6.99015 3.13098 6.28042 3.3787 5.67466 3.80045C5.58371 3.86385 5.47129 3.88852 5.36214 3.86903C5.253 3.84954 5.15606 3.78749 5.09267 3.69653C5.02927 3.60557 5.0046 3.49315 5.02409 3.384C5.04358 3.27485 5.10563 3.17791 5.19658 3.11451C5.82462 2.67725 6.54675 2.39397 7.30458 2.28758C8.0624 2.18119 8.83462 2.25469 9.55877 2.50213C10.2829 2.74956 10.9387 3.16399 11.4729 3.71188C12.0072 4.25976 12.405 4.92573 12.6342 5.65588C12.8633 6.38604 12.9174 7.15989 12.792 7.91482C12.6666 8.66976 12.3653 9.38457 11.9124 10.0014C11.4595 10.6183 10.8678 11.1199 10.1851 11.4656C9.50235 11.8114 8.74785 11.9916 7.9826 11.9916Z" fill="#1778F2"/>
<path d="M5.19708 7.81109H2.96827C2.85744 7.81109 2.75114 7.76706 2.67277 7.68868C2.5944 7.61031 2.55037 7.50401 2.55037 7.39317C2.55037 7.28233 2.5944 7.17604 2.67277 7.09766C2.75114 7.01929 2.85744 6.97526 2.96827 6.97526H5.19708C5.30792 6.97526 5.41421 7.01929 5.49259 7.09766C5.57096 7.17604 5.61499 7.28233 5.61499 7.39317C5.61499 7.50401 5.57096 7.61031 5.49259 7.68868C5.41421 7.76706 5.30792 7.81109 5.19708 7.81109ZM5.57598 6.13943H2.41107C2.30023 6.13943 2.19394 6.0954 2.11556 6.01702C2.03719 5.93865 1.99316 5.83235 1.99316 5.72151C1.99316 5.61067 2.03719 5.50438 2.11556 5.426C2.19394 5.34763 2.30023 5.3036 2.41107 5.3036H5.57598C5.68682 5.3036 5.79311 5.34763 5.87148 5.426C5.94986 5.50438 5.99388 5.61067 5.99388 5.72151C5.99388 5.83235 5.94986 5.93865 5.87148 6.01702C5.79311 6.0954 5.68682 6.13943 5.57598 6.13943ZM5.75429 9.48275H2.41107C2.30023 9.48275 2.19394 9.43872 2.11556 9.36034C2.03719 9.28197 1.99316 9.17567 1.99316 9.06483C1.99316 8.95399 2.03719 8.8477 2.11556 8.76932C2.19394 8.69095 2.30023 8.64692 2.41107 8.64692H5.75429C5.86512 8.64692 5.97142 8.69095 6.04979 8.76932C6.12816 8.8477 6.17219 8.95399 6.17219 9.06483C6.17219 9.17567 6.12816 9.28197 6.04979 9.36034C5.97142 9.43872 5.86512 9.48275 5.75429 9.48275ZM13.3428 1.34232L11.464 0.142623C11.2457 0.00393841 10.9814 -0.0425596 10.729 0.0133225C10.4765 0.0692045 10.2565 0.222907 10.1172 0.440736L9.81741 0.910473C9.67856 1.12851 9.63191 1.39274 9.68769 1.64515C9.74348 1.89756 9.89715 2.11751 10.115 2.25672L11.995 3.45585C12.2131 3.59409 12.477 3.64039 12.7292 3.58464C12.9813 3.52888 13.2011 3.37561 13.3406 3.1583L13.6404 2.68856C13.7789 2.47044 13.8254 2.2063 13.7697 1.95398C13.7139 1.70166 13.5604 1.48172 13.3428 1.34232Z" fill="#1778F2"/>
<path d="M10.6795 3.85915C10.6047 3.85899 10.5313 3.83875 10.4669 3.80053C10.4026 3.76231 10.3497 3.70751 10.3138 3.64186C10.2779 3.57622 10.2602 3.50213 10.2627 3.42733C10.2652 3.35254 10.2877 3.27978 10.3279 3.21667L10.9269 2.2772C10.9564 2.23091 10.9948 2.1909 11.0398 2.15944C11.0848 2.12798 11.1355 2.10569 11.1891 2.09384C11.2427 2.08199 11.2981 2.08081 11.3522 2.09038C11.4063 2.09995 11.4579 2.12007 11.5042 2.14959C11.5505 2.17912 11.5905 2.21747 11.6219 2.26246C11.6534 2.30745 11.6757 2.3582 11.6875 2.41181C11.6994 2.46541 11.7006 2.52083 11.691 2.57489C11.6814 2.62895 11.6613 2.68059 11.6318 2.72687L11.0322 3.66579C10.9946 3.7252 10.9425 3.77409 10.8808 3.8079C10.8191 3.84172 10.7499 3.85934 10.6795 3.85915ZM7.98322 3.90818C7.34954 3.90818 6.7301 4.09609 6.20322 4.44815C5.67633 4.80022 5.26568 5.30062 5.02318 5.88607C4.78069 6.47153 4.71724 7.11575 4.84086 7.73727C4.96448 8.35879 5.26963 8.92969 5.7177 9.37778C6.16578 9.82587 6.73666 10.131 7.35816 10.2546C7.97966 10.3783 8.62387 10.3148 9.2093 10.0723C9.79474 9.82982 10.2951 9.41915 10.6472 8.89225C10.9992 8.36535 11.1871 7.74589 11.1871 7.1122C11.19 6.69065 11.109 6.27275 10.949 5.88275C10.789 5.49275 10.5531 5.13843 10.255 4.84034C9.95693 4.54226 9.60261 4.30636 9.21263 4.14634C8.82264 3.98632 8.40475 3.90537 7.98322 3.90818ZM9.37177 6.46025L8.80286 6.95395C8.81334 7.00605 8.81875 7.05905 8.81902 7.1122C8.82186 7.293 8.76691 7.47 8.66217 7.6174C8.55743 7.76481 8.40837 7.87493 8.2367 7.93174C8.06503 7.98854 7.87971 7.98906 7.70772 7.93322C7.53573 7.87738 7.38606 7.76809 7.2805 7.62127C7.17493 7.47446 7.11899 7.29778 7.12081 7.11695C7.12264 6.93613 7.18213 6.76062 7.29064 6.61596C7.39914 6.4713 7.55098 6.36506 7.72406 6.31269C7.89714 6.26033 8.08241 6.26459 8.2529 6.32484L8.82348 5.82892C8.9072 5.75621 9.01637 5.71973 9.12698 5.72752C9.23759 5.7353 9.34057 5.78671 9.41328 5.87043C9.48599 5.95415 9.52246 6.06333 9.51468 6.17394C9.50689 6.28455 9.45549 6.38754 9.37177 6.46025Z" fill="#1778F2"/>
</g>
<defs>
<clipPath id="clip0_1_1794">
<rect width="16" height="12" fill="white"/>
</clipPath>
</defs>
</svg>
