<svg width="24" height="24" viewBox="0 0 24 24" fill="none" xmlns="http://www.w3.org/2000/svg">
<path d="M11.5771 20.7885C8.92571 20.7771 6.26285 20.6171 3.64571 20.3428C2.53714 20.3428 1.58857 19.3942 1.58857 18.2285C1.31428 16.1028 1.15428 13.8742 1.14285 11.6799C1.16571 9.3485 1.31428 6.99422 1.58857 4.68564C1.58857 3.5885 2.53714 2.63993 3.70285 2.6285C3.69142 2.6285 7.76 2.28564 11.76 2.28564C15.76 2.28564 19.8171 2.6285 19.8629 2.63993C20.9829 2.63993 21.9314 3.5885 21.9314 4.75422C21.9314 4.75422 22.3314 8.33136 22.3314 11.6685C22.32 13.8628 22.1829 16.0799 21.9314 18.2514C21.9086 19.4056 20.9714 20.3314 19.8171 20.3314C19.8286 20.3428 15.5886 20.7885 11.5771 20.7885ZM11.76 3.4285C7.80571 3.4285 3.79428 3.77136 3.74857 3.77136C3.16571 3.77136 2.72 4.21707 2.72 4.75422C2.45714 7.09707 2.30857 9.40564 2.28571 11.6799C2.29714 13.8285 2.44571 15.9999 2.73142 18.1485C2.73142 18.7656 3.17714 19.1999 3.71428 19.1999C6.35428 19.4856 8.98285 19.6342 11.5886 19.6456C15.5314 19.6456 19.7143 19.2114 19.7486 19.1999C20.3429 19.1999 20.7886 18.7542 20.7886 18.2171V18.1485C21.04 16.0114 21.1771 13.8285 21.1886 11.6685C21.1886 8.37707 20.8 4.85707 20.7886 4.81136C20.7886 4.20564 20.3429 3.77136 19.8057 3.77136C19.7257 3.77136 15.7143 3.4285 11.76 3.4285Z" fill="#2E3742"/>
<path d="M21.8285 6.89137C20.3657 6.85708 19.1314 6.79994 17.9199 6.7428C16.0228 6.6628 14.2285 6.5828 11.7371 6.5828C7.7028 6.5828 1.77137 6.87994 1.71423 6.89137L1.65709 5.74851C1.71423 5.74851 7.67995 5.43994 11.7485 5.43994C14.2628 5.43994 16.0685 5.51994 17.9771 5.59994C19.1771 5.65708 20.4114 5.7028 21.8628 5.73708L21.8285 6.89137Z" fill="#2E3742"/>
<path d="M9.30301 16.4914L8.96016 16.1714L8.14873 15.4286L7.16587 14.5143L6.32016 13.7143C6.18301 13.5886 6.04587 13.4629 5.90873 13.3372L6.04587 13.6686V13.3943L5.5773 13.8629H6.11444C6.2973 13.8629 6.49159 13.8743 6.67444 13.8629C7.12016 13.84 7.53159 13.7143 7.8973 13.4743C8.25159 13.2457 8.5373 12.9257 8.74301 12.56C9.15444 11.7829 9.12016 10.8457 8.64016 10.1029C8.19444 9.40572 7.4173 8.97144 6.58301 8.97144H5.34873C5.22301 8.97144 5.10873 9.01715 5.0173 9.10858C4.83444 9.29144 4.83444 9.58858 5.0173 9.76001C5.10873 9.84001 5.22301 9.89715 5.34873 9.89715H6.52587C6.64016 9.89715 6.74301 9.89715 6.8573 9.92001L6.73159 9.90858C6.90301 9.93144 7.07444 9.97715 7.23444 10.0457L7.12016 10C7.28016 10.0686 7.42873 10.1486 7.56587 10.2629L7.47444 10.1829C7.60016 10.2857 7.72587 10.4114 7.82873 10.5371L7.74873 10.4457C7.85159 10.5829 7.94301 10.7314 8.01159 10.8914L7.96587 10.7772C8.03444 10.9372 8.08016 11.1086 8.10301 11.28C8.10301 11.2343 8.09159 11.2 8.08016 11.1543C8.10301 11.3257 8.10301 11.4972 8.08016 11.6686C8.09159 11.6229 8.09159 11.5886 8.10301 11.5429C8.08016 11.7143 8.03444 11.8857 7.96587 12.0457L8.01159 11.9314C7.94301 12.1029 7.86301 12.2514 7.74873 12.3886L7.8173 12.2972C7.72587 12.4229 7.60016 12.5486 7.47444 12.6514L7.56587 12.5714C7.42873 12.6743 7.28016 12.7657 7.12016 12.8343L7.23444 12.7886C7.07444 12.8572 6.90301 12.9029 6.73159 12.9257L6.8573 12.9029C6.68587 12.9257 6.52587 12.9257 6.35444 12.9257H5.58873C5.3373 12.9257 5.13159 13.1314 5.12016 13.3943C5.12016 13.4857 5.12016 13.5657 5.12016 13.6572C5.12016 13.7943 5.1773 13.92 5.28016 14.0114L5.46301 14.1714L6.24016 14.8914L7.26873 15.8514L8.19444 16.72C8.34301 16.8572 8.50301 17.0057 8.65159 17.1543H8.66301C8.75444 17.2343 8.86873 17.2914 8.99444 17.2914C9.12016 17.2914 9.23444 17.2457 9.32587 17.1543C9.4173 17.0629 9.46302 16.9486 9.46302 16.8229C9.46302 16.6972 9.4173 16.5829 9.32587 16.4914H9.30301Z" fill="#2E3742"/>
<path d="M5.34873 9.90862H9.66873C9.86302 9.90862 10.0687 9.90862 10.263 9.90862H10.2744C10.4002 9.90862 10.5144 9.86291 10.6059 9.77148C10.7887 9.58862 10.7887 9.29148 10.6059 9.12005C10.5144 9.02862 10.3887 8.98291 10.2744 8.98291H5.95444C5.76016 8.98291 5.55444 8.98291 5.36016 8.98291H5.34873C5.22301 8.98291 5.10873 9.02862 5.0173 9.12005C4.83444 9.30291 4.83444 9.60005 5.0173 9.77148C5.10873 9.85148 5.22301 9.90862 5.34873 9.90862Z" fill="#2E3742"/>
<path d="M5.34873 11.8856H9.66873C9.86302 11.8856 10.0687 11.8856 10.263 11.8856H10.2744C10.4002 11.8856 10.5144 11.8399 10.6059 11.7485C10.7887 11.5656 10.7887 11.2685 10.6059 11.0971C10.5144 11.0056 10.3887 10.9599 10.2744 10.9485H5.95444C5.76016 10.9485 5.55444 10.9485 5.36016 10.9485H5.34873C5.22301 10.9485 5.10873 10.9942 5.0173 11.0856C4.83444 11.2685 4.83444 11.5656 5.0173 11.7371C5.10873 11.8285 5.22301 11.8856 5.34873 11.8856Z" fill="#2E3742"/>
<path d="M18.5459 10.3987H21.2096C22.1863 10.3987 22.9854 11.059 22.9854 11.866C22.9854 12.673 22.1863 13.3333 21.2096 13.3333H18.5459C17.5692 13.3333 16.7701 12.673 16.7701 11.866C16.7701 11.0516 17.5692 10.3987 18.5459 10.3987Z" fill="white"/>
<path d="M18.1713 10.6285C17.5427 10.6285 17.0285 11.1427 17.0285 11.7713C17.0285 12.3999 17.5427 12.9142 18.1713 12.9142H21.5999C22.2285 12.9142 22.7427 12.3999 22.7427 11.7713C22.7427 11.1427 22.2285 10.6285 21.5999 10.6285H18.1713ZM18.1713 9.4856H21.5999C22.857 9.4856 23.8856 10.5142 23.8856 11.7713C23.8856 13.0285 22.857 14.057 21.5999 14.057H18.1713C16.9142 14.057 15.8856 13.0285 15.8856 11.7713C15.8856 10.5027 16.9142 9.4856 18.1713 9.4856Z" fill="#2E3742"/>
</svg>
